HIERARCHY
ROOT Hips
{
    OFFSET 0.000000 0.000000 0.000000
    CHANNELS 6 Xposition Yposition Zposition Zrotation Xrotation Yrotation
    JOINT Spine
    {
        OFFSET -0.000000 7.246840 0.000000
        CHANNELS 3 Zrotation Xrotation Yrotation
        JOINT Spine1
        {
            OFFSET -0.000000 20.289354 0.000000
            CHANNELS 3 Zrotation Xrotation Yrotation
            JOINT Neck
            {
                OFFSET -0.000000 20.206032 1.836912
                CHANNELS 3 Zrotation Xrotation Yrotation
                JOINT Head
                {
                    OFFSET -0.000000 12.372654 -1.767522
                    CHANNELS 3 Zrotation Xrotation Yrotation
                    End Site
                    {
                        OFFSET -0.000000 22.094025 0.000000
                    }
                }
            }
            JOINT LeftShoulder
            {
                OFFSET 3.465871 17.201674 -0.568930
                CHANNELS 3 Zrotation Xrotation Yrotation
                JOINT LeftArm
                {
                    OFFSET 14.070313 0.000000 0.000000
                    CHANNELS 3 Zrotation Xrotation Yrotation
                    JOINT LeftForeArm
                    {
                        OFFSET 26.549477 0.000000 0.000000
                        CHANNELS 3 Zrotation Xrotation Yrotation
                        JOINT LeftHand
                        {
                            OFFSET 18.880413 0.000000 0.000000
                            CHANNELS 3 Zrotation Xrotation Yrotation
                            End Site
                            {
                                OFFSET 13.256415 0.000000 0.000000
                            }
                        }
                    }
                }
            }
            JOINT RightShoulder
            {
                OFFSET -3.526370 17.201674 -0.568930
                CHANNELS 3 Zrotation Xrotation Yrotation
                JOINT RightArm
                {
                    OFFSET -14.070313 0.000000 0.000000
                    CHANNELS 3 Zrotation Xrotation Yrotation
                    JOINT RightForeArm
                    {
                        OFFSET -26.549477 0.000000 0.000000
                        CHANNELS 3 Zrotation Xrotation Yrotation
                        JOINT RightHand
                        {
                            OFFSET -18.880413 0.000000 0.000000
                            CHANNELS 3 Zrotation Xrotation Yrotation
                            End Site
                            {
                                OFFSET -13.256415 0.000000 0.000000
                            }
                        }
                    }
                }
            }
        }
    }
    JOINT LeftUpLeg
    {
        OFFSET 8.837609 0.000000 0.000000
        CHANNELS 3 Zrotation Xrotation Yrotation
        JOINT LeftLeg
        {
            OFFSET -0.000000 -41.345005 0.000000
            CHANNELS 3 Zrotation Xrotation Yrotation
            JOINT LeftFoot
            {
                OFFSET -0.000000 -35.500874 0.000000
                CHANNELS 3 Zrotation Xrotation Yrotation
                JOINT LeftToeBase
                {
                    OFFSET -0.000000 -5.744446 13.256415
                    CHANNELS 3 Zrotation Xrotation Yrotation
                    End Site
                    {
                        OFFSET -0.000000 0.000000 3.535044
                    }
                }
            }
        }
    }
    JOINT RightUpLeg
    {
        OFFSET -8.837609 0.000000 0.000000
        CHANNELS 3 Zrotation Xrotation Yrotation
        JOINT RightLeg
        {
            OFFSET -0.000000 -41.345005 0.000000
            CHANNELS 3 Zrotation Xrotation Yrotation
            JOINT RightFoot
            {
                OFFSET -0.000000 -35.500874 0.000000
                CHANNELS 3 Zrotation Xrotation Yrotation
                JOINT RightToeBase
                {
                    OFFSET -0.000000 -5.744446 13.256415
                    CHANNELS 3 Zrotation Xrotation Yrotation
                    End Site
                    {
                        OFFSET -0.000000 0.000000 3.535044
                    }
                }
            }
        }
    }
}
MOTION
Frames:    8
Frame Time:    0.010000
6.070209    82.287727    -8.721145    3.824093    4.384770    1.112619    -5.195320    -14.816011    0.159111    -0.111836    3.982124    0.838949    3.070827    32.091621    -1.636342    2.559318    -17.084570    -0.485213    19.895922    -0.040396    6.256478    -28.488190    12.254254    -13.048691    4.951146    -11.889114    -9.307758    -31.811417    -11.455242    -0.139492    -16.331617    -0.900063    13.718795    18.037991    4.076324    9.340096    -2.295507    -7.940028    0.826780    9.781681    -7.273725    7.650923    -1.879690    5.738196    2.000149    -0.572354    -9.700278    -3.888864    -1.513788    2.510195    1.786376    -0.646766    -1.617287    0.914357    -10.834111    4.433990    -0.227170    7.417429    -11.617626    0.223626    -0.326653    0.375563    -10.068470    0.043009    2.751376    -0.074939    
6.064222    82.287720    -8.718780    3.821045    4.391358    1.111008    -5.212338    -14.782148    0.152816    -0.092308    3.924320    0.832579    3.080953    32.095261    -1.640569    2.520519    -17.059389    -0.499597    19.884838    -0.024356    6.283790    -28.479124    12.280631    -13.082204    4.969479    -11.885015    -9.303115    -31.801332    -11.453923    -0.125033    -16.325451    -0.884731    13.710667    18.025368    4.058967    9.370886    -2.295398    -7.944486    0.814075    9.772063    -7.277730    7.666891    -1.871767    5.733819    2.003408    -0.611647    -9.681759    -3.674503    -1.296487    2.451213    1.533692    -0.692086    -1.443416    0.977379    -10.822700    4.427361    -0.226505    7.408362    -11.611531    0.242996    -0.319235    0.377917    -10.096267    0.045632    2.754672    -0.079506    
6.070810    82.288483    -8.719127    3.824796    4.387036    1.064677    -5.160264    -14.741876    0.169472    -0.138335    3.873483    0.842183    2.998253    32.104900    -1.605410    2.577799    -17.048479    -0.459502    19.862047    -0.023356    6.325354    -28.446695    12.305897    -13.089767    4.960925    -11.889453    -9.315047    -31.767284    -11.458705    -0.124528    -16.347837    -0.908059    13.743191    18.065649    4.037291    9.379203    -2.313490    -7.947742    0.805502    9.808664    -7.277858    7.675274    -1.892964    5.746257    2.036860    -0.564903    -9.702138    -3.880363    -1.489133    2.505449    1.786885    -0.644775    -1.634433    0.911638    -10.840004    4.409654    -0.197512    7.422644    -11.597882    0.228846    -0.336805    0.387606    -10.057171    0.042049    2.745149    -0.073270    
6.066178    82.288918    -8.715140    3.823864    4.392715    1.056961    -5.159843    -14.741270    0.171306    -0.153758    3.867069    0.844398    3.010840    32.101730    -1.606919    2.572160    -17.041239    -0.461012    19.876732    -0.017644    6.327349    -28.451599    12.308527    -13.096261    4.972792    -11.902780    -9.318850    -31.741940    -11.469572    -0.129529    -16.325674    -0.901437    13.742569    18.055538    3.984233    9.398995    -2.316161    -7.942559    0.790732    9.844330    -7.269438    7.688261    -1.885616    5.747578    2.017203    -0.576400    -9.710032    -3.732168    -1.318849    2.488788    1.645306    -0.686365    -1.478375    0.969509    -10.838533    4.403983    -0.195090    7.431821    -11.595286    0.245708    -0.334500    0.383718    -10.070989    0.046763    2.751268    -0.081480    
6.060811    82.289734    -8.710696    3.821247    4.395826    1.048027    -5.166081    -14.783560    0.189005    -0.159720    3.930349    0.865155    3.043570    32.091225    -1.629370    2.572673    -17.049114    -0.479166    19.906668    -0.039999    6.267546    -28.477640    12.283777    -13.076993    4.978435    -11.907803    -9.314177    -31.729448    -11.473231    -0.133654    -16.314066    -0.898274    13.735113    18.045046    3.971631    9.361850    -2.313650    -7.963453    0.828572    9.879297    -7.286979    7.691698    -1.887064    5.748734    2.042010    -0.556999    -9.721264    -3.778016    -1.517365    2.518616    1.680705    -0.677835    -1.632900    0.958372    -10.829881    4.398177    -0.197264    7.424354    -11.588741    0.244473    -0.333616    0.391371    -10.058811    0.049764    2.722238    -0.086734    
6.056187    82.289764    -8.705756    3.817879    4.403255    1.041179    -5.189847    -14.751419    0.179047    -0.129656    3.874515    0.855730    3.051637    32.079731    -1.622217    2.536918    -17.016729    -0.481836    19.910803    -0.037155    6.309799    -28.491859    12.316899    -13.093198    4.991883    -11.908444    -9.331389    -31.744064    -11.476564    -0.117480    -16.312292    -0.895633    13.723455    18.038170    3.985079    9.402885    -2.315603    -7.972836    0.816037    9.899272    -7.292973    7.718366    -1.880182    5.743536    2.045487    -0.572391    -9.710440    -3.712130    -1.307368    2.482914    1.607829    -0.703647    -1.463189    0.993826    -10.823172    4.391481    -0.195922    7.430281    -11.588919    0.237836    -0.333253    0.389624    -10.045791    0.053489    2.737218    -0.093212    
6.052568    82.291176    -8.700040    3.816752    4.404397    1.030455    -5.172676    -14.733756    0.170337    -0.153782    3.847144    0.844751    3.003588    32.080624    -1.602839    2.570746    -17.002014    -0.459759    19.893921    0.004847    6.359026    -28.450029    12.296064    -13.127345    4.978002    -11.914185    -9.346271    -31.774387    -11.488256    -0.097744    -16.309423    -0.904044    13.763333    18.060627    3.935671    9.404124    -2.328887    -7.952826    0.814400    9.914512    -7.271024    7.727893    -1.880400    5.748810    2.039880    -0.563832    -9.699989    -3.779234    -1.509676    2.494288    1.702098    -0.670420    -1.648146    0.947978    -10.820125    4.390186    -0.181086    7.428913    -11.585053    0.233061    -0.323675    0.388760    -10.050984    0.039398    2.738911    -0.068656    
6.048706    82.291298    -8.694351    3.815374    4.409824    1.018218    -5.174868    -14.730904    0.171698    -0.148927    3.836892    0.846108    2.991724    32.070065    -1.591978    2.569295    -16.989420    -0.451341    19.888876    -0.008473    6.362058    -28.433357    12.331245    -13.116982    4.966758    -11.937510    -9.358468    -31.790041    -11.511777    -0.098497    -16.317623    -0.904363    13.770160    18.075497    3.917220    9.418529    -2.335602    -7.949927    0.803488    9.896255    -7.269625    7.726637    -1.875065    5.749798    2.037394    -0.561728    -9.712793    -3.749204    -1.334676    2.481846    1.680033    -0.695515    -1.479025    0.982436    -10.815283    4.385252    -0.182795    7.428288    -11.587216    0.225175    -0.349898    0.389820    -10.021787    0.049891    2.739417    -0.086939    
